<?xml version="1.0" standalone="no"?>
<svg xmlns="http://www.w3.org/2000/svg" viewBox="0 0 164.832 33.268" width="164.832" height="33.268"><g fill="#bc2f80" color="#bc2f80" transform="translate(0, 0) scale(6.8503933)"><svg width="4.2333332" height="4.2333336" x="0.0" y="0.0" viewBox="0 0 4.2333332 4.2333336"><g transform="translate(0,-292.76666)"><path style="color:#000000;font-style:normal;font-variant:normal;font-weight:normal;font-stretch:normal;font-size:medium;line-height:normal;font-family:sans-serif;text-indent:0;text-align:start;text-decoration:none;text-decoration-line:none;text-decoration-style:solid;text-decoration-color:#000000;letter-spacing:normal;word-spacing:normal;text-transform:none;direction:ltr;writing-mode:lr-tb;baseline-shift:baseline;text-anchor:start;white-space:normal;clip-rule:nonzero;display:inline;overflow:visible;visibility:visible;opacity:1;isolation:auto;mix-blend-mode:normal;color-interpolation:sRGB;color-interpolation-filters:linearRGB;solid-color:#000000;solid-opacity:1;fill:#000000;fill-opacity:1;fill-rule:nonzero;stroke:none;stroke-width:1;stroke-linecap:butt;stroke-linejoin:miter;stroke-miterlimit:4;stroke-dasharray:none;stroke-dashoffset:0;stroke-opacity:1;paint-order:markers fill stroke;color-rendering:auto;image-rendering:auto;shape-rendering:auto;text-rendering:auto;enable-background:accumulate" d="m 1.4738118,293.29557 -0.3710369,0.52917 -0.83767509,0 0,2.64635 3.70313339,0 0,-0.13281 0,-2.51354 -0.8418092,0 -0.3674192,-0.52917 -1.285193,0 z m 0.1369425,0.26562 1.0097575,0 0.3689697,0.52916 0.7152018,0 0,2.11512 -3.17603361,0 0,-2.11512 0.71106781,0 0.3710368,-0.52916 z m -0.81648781,0.79271 0,0.13281 0,1.45521 1.85156671,0 0,-1.58802 -1.85156671,0 z m 2.11511661,0 0,0.26562 0.5291667,0 0,-0.26562 -0.5291667,0 z m -1.8515667,0.26562 1.3224,0 0,1.05885 -1.3224,0 0,-1.05885 z m 1.8515667,0.26407 0,0.26561 0.5291667,0 0,-0.26561 -0.5291667,0 z"></path></g></svg></g><line x1="41" y1="1" x2="41" y2="28" stroke="#333" stroke-linecap="round"></line><path fill="#333" fill-rule="nonzero" d="M0.29 18.67L0.29 18.67Q0.65 17.88 1.15 16.63Q1.66 15.38 2.21 13.93Q2.76 12.48 3.34 10.96Q3.91 9.43 4.42 8.06Q4.92 6.70 5.29 5.62Q5.66 4.54 5.83 3.96L5.83 3.96Q4.32 4.58 3.24 5.86Q2.16 7.13 1.61 9.05L1.61 9.05Q1.06 8.86 0.60 8.36Q0.14 7.87 0 7.13L0 7.13Q0.24 6.02 0.90 5.11Q1.56 4.20 2.57 3.55Q3.58 2.90 4.90 2.56Q6.22 2.21 7.73 2.21L7.73 2.21Q9.65 2.21 11.26 2.77Q12.86 3.34 14.02 4.34Q15.17 5.35 15.82 6.77Q16.46 8.18 16.46 9.91L16.46 9.91Q16.46 12.26 15.60 14.40Q14.74 16.54 13.26 18.17Q11.78 19.80 9.84 20.77Q7.90 21.74 5.76 21.74L5.76 21.74Q3.79 21.74 2.39 20.96Q0.98 20.18 0.29 18.67ZM8.76 3.41L8.76 3.41Q7.56 3.41 6.48 3.74L6.48 3.74Q7.54 4.13 8.23 4.55Q8.93 4.97 9.19 5.21L9.19 5.21Q9 5.47 8.63 6.14Q8.26 6.82 7.76 7.78Q7.27 8.74 6.72 9.88Q6.17 11.02 5.64 12.22L5.64 12.22Q4.27 15.26 3.66 17.02Q3.05 18.77 3.05 19.44L3.05 19.44Q3.38 19.56 3.86 19.61Q4.34 19.66 4.90 19.66L4.90 19.66Q6.84 19.66 8.58 18.76Q10.32 17.86 11.63 16.34Q12.94 14.83 13.69 12.83Q14.45 10.82 14.45 8.62L14.45 8.62Q14.45 6.14 12.91 4.78Q11.38 3.41 8.76 3.41ZM17.14 18.31L17.14 18.31Q17.14 18.10 17.17 17.77Q17.21 17.45 17.30 16.91Q17.40 16.37 17.56 15.60Q17.71 14.83 17.95 13.75L17.95 13.75Q18 13.51 18.17 12.98Q18.34 12.46 18.61 11.87Q18.89 11.28 19.28 10.73Q19.68 10.18 20.23 9.91L20.23 9.91Q20.64 10.01 21.31 10.40Q21.98 10.80 22.46 11.50L22.46 11.50Q21.91 12.12 21.54 12.74Q21.17 13.37 20.87 14.04Q20.57 14.71 20.32 15.43Q20.06 16.15 19.75 16.94L19.75 16.94Q19.49 17.62 19.27 18.32Q19.06 19.03 19.03 19.56L19.03 19.56Q19.03 19.99 19.02 20.17Q19.01 20.35 18.89 20.35L18.89 20.35Q18.79 20.35 18.50 20.23Q18.22 20.11 17.92 19.86Q17.62 19.61 17.38 19.22Q17.14 18.84 17.14 18.31ZM21.72 7.90L21.72 7.90Q21.72 7.75 21.79 7.46L21.79 7.46Q21.67 7.34 21.59 7.10Q21.50 6.86 21.50 6.67L21.50 6.67Q21.50 6.46 21.56 6.08Q21.62 5.71 21.72 5.28Q21.82 4.85 21.96 4.38Q22.10 3.91 22.25 3.53L22.25 3.53Q22.54 3.53 22.96 3.68Q23.38 3.84 23.81 4.09Q24.24 4.34 24.60 4.64Q24.96 4.94 25.15 5.21L25.15 5.21Q24.89 5.47 24.46 5.94Q24.02 6.41 23.62 6.92Q23.21 7.44 22.87 7.90Q22.54 8.35 22.44 8.54L22.44 8.54Q22.15 8.50 21.94 8.29Q21.72 8.09 21.72 7.90ZM17.93 27.07L17.93 27.07Q17.93 26.93 18.02 26.81Q18.12 26.69 18.24 26.57L18.24 26.57Q18.53 26.83 18.73 26.98Q18.94 27.12 19.12 27.22Q19.30 27.31 19.49 27.34Q19.68 27.36 19.94 27.36L19.94 27.36Q21.19 27.36 22.32 26.70Q23.45 26.04 24.44 24.79Q25.44 23.54 26.26 21.74Q27.07 19.94 27.70 17.66L27.70 17.66Q27.41 17.95 26.99 18.30Q26.57 18.65 26.11 18.96Q25.66 19.27 25.21 19.54Q24.77 19.80 24.46 19.92L24.46 19.92Q24.05 19.85 23.70 19.57Q23.35 19.30 23.09 18.89Q22.82 18.48 22.68 17.96Q22.54 17.45 22.54 16.87L22.54 16.87Q22.54 15.94 22.88 14.95Q23.23 13.97 23.81 13.02Q24.38 12.07 25.16 11.23Q25.94 10.39 26.82 9.77Q27.70 9.14 28.60 8.77Q29.50 8.40 30.36 8.40L30.36 8.40Q31.20 8.40 31.62 8.75Q32.04 9.10 32.23 9.94L32.23 9.94Q31.97 9.79 31.56 9.79L31.56 9.79Q30.98 9.79 30.23 10.25Q29.47 10.70 28.69 11.44Q27.91 12.17 27.14 13.12Q26.38 14.06 25.79 15.05Q25.20 16.03 24.83 16.97Q24.46 17.90 24.46 18.65L24.46 18.65Q24.46 18.82 24.48 18.85Q24.50 18.89 24.55 18.89L24.55 18.89Q24.77 18.89 25.14 18.65Q25.51 18.41 25.98 18.04Q26.45 17.66 26.95 17.17Q27.46 16.68 27.91 16.18L27.91 16.18Q28.94 15.02 29.80 13.60Q30.65 12.17 31.15 10.82L31.15 10.82Q31.80 10.87 32.30 11.04Q32.81 11.21 33 11.40L33 11.40Q32.18 13.27 31.69 14.54Q31.20 15.82 30.84 16.80L30.84 16.80Q30.19 18.53 29.63 19.96Q29.06 21.38 28.48 22.60Q27.89 23.81 27.20 24.85Q26.52 25.90 25.66 26.86L25.66 26.86Q25.25 27.31 24.73 27.66Q24.22 28.01 23.68 28.25Q23.14 28.49 22.62 28.61Q22.10 28.73 21.67 28.73L21.67 28.73Q21.10 28.73 20.50 28.60Q19.90 28.46 19.38 28.24Q18.86 28.01 18.48 27.71Q18.10 27.41 17.93 27.07ZM33.60 18.31L33.60 18.31Q33.60 18.10 33.64 17.77Q33.67 17.45 33.77 16.91Q33.86 16.37 34.02 15.60Q34.18 14.83 34.42 13.75L34.42 13.75Q34.46 13.51 34.63 12.98Q34.80 12.46 35.08 11.87Q35.35 11.28 35.75 10.73Q36.14 10.18 36.70 9.91L36.70 9.91Q37.10 10.01 37.78 10.40Q38.45 10.80 38.93 11.50L38.93 11.50Q38.38 12.12 38.00 12.74Q37.63 13.37 37.33 14.04Q37.03 14.71 36.78 15.43Q36.53 16.15 36.22 16.94L36.22 16.94Q35.95 17.62 35.74 18.32Q35.52 19.03 35.50 19.56L35.50 19.56Q35.50 19.99 35.48 20.17Q35.47 20.35 35.35 20.35L35.35 20.35Q35.26 20.35 34.97 20.23Q34.68 20.11 34.38 19.86Q34.08 19.61 33.84 19.22Q33.60 18.84 33.60 18.31ZM38.18 7.90L38.18 7.90Q38.18 7.75 38.26 7.46L38.26 7.46Q38.14 7.34 38.05 7.10Q37.97 6.86 37.97 6.67L37.97 6.67Q37.97 6.46 38.03 6.08Q38.09 5.71 38.18 5.28Q38.28 4.85 38.42 4.38Q38.57 3.91 38.71 3.53L38.71 3.53Q39 3.53 39.42 3.68Q39.84 3.84 40.27 4.09Q40.70 4.34 41.06 4.64Q41.42 4.94 41.62 5.21L41.62 5.21Q41.35 5.47 40.92 5.94Q40.49 6.41 40.08 6.92Q39.67 7.44 39.34 7.90Q39 8.35 38.90 8.54L38.90 8.54Q38.62 8.50 38.40 8.29Q38.18 8.09 38.18 7.90ZM41.86 10.73L40.49 10.73Q40.37 10.58 40.27 10.12Q40.18 9.65 40.18 9.31L40.18 9.31Q40.80 9.36 41.38 9.40Q41.95 9.43 42.43 9.46L42.43 9.46Q42.79 8.74 43.21 8.03Q43.63 7.32 44.03 6.73Q44.42 6.14 44.77 5.74Q45.12 5.33 45.31 5.21L45.31 5.21Q45.55 5.21 45.92 5.29Q46.30 5.38 46.68 5.51Q47.06 5.64 47.38 5.78Q47.69 5.93 47.81 6.07L47.81 6.07Q47.09 6.98 46.57 7.76Q46.06 8.54 45.46 9.55L45.46 9.55Q45.94 9.55 46.43 9.53Q46.92 9.50 47.42 9.46L47.42 9.46Q47.54 9.58 47.62 9.76Q47.69 9.94 47.69 10.13L47.69 10.13Q46.51 10.56 44.83 10.61L44.83 10.61Q44.23 11.76 43.76 12.90Q43.30 14.04 42.97 15.10Q42.65 16.15 42.47 17.09Q42.29 18.02 42.29 18.77L42.29 18.77Q42.29 19.82 43.08 19.94L43.08 19.94Q43.80 19.85 44.45 19.58Q45.10 19.32 45.60 18.91L45.60 18.91Q45.74 19.13 45.77 19.27L45.77 19.27Q45.62 19.49 45.28 19.78Q44.93 20.06 44.52 20.34Q44.11 20.62 43.73 20.81Q43.34 21 43.15 21.02L43.15 21.02Q42.55 21 41.95 20.76Q41.35 20.52 40.86 20.16Q40.37 19.80 40.06 19.36Q39.74 18.91 39.74 18.48L39.74 18.48Q39.74 17.90 39.90 17.03Q40.06 16.15 40.34 15.12Q40.63 14.09 41.02 12.96Q41.40 11.83 41.86 10.73L41.86 10.73ZM55.80 10.22L55.80 10.22Q56.04 10.22 56.36 10.31Q56.69 10.39 56.95 10.52Q57.22 10.66 57.40 10.80Q57.58 10.94 57.58 11.06L57.58 11.06Q57.10 12.07 56.69 13.09Q56.28 14.11 55.99 15.05Q55.70 15.98 55.55 16.80Q55.39 17.62 55.39 18.22L55.39 18.22Q55.39 18.89 55.54 19.33Q55.68 19.78 56.02 19.97L56.02 19.97Q55.73 20.16 55.27 20.28Q54.82 20.40 54.46 20.40L54.46 20.40Q53.16 20.40 53.16 18.62L53.16 18.62Q53.16 17.26 54.07 14.88L54.07 14.88Q53.59 15.98 52.97 16.96Q52.34 17.93 51.70 18.67Q51.05 19.42 50.39 19.88Q49.73 20.35 49.18 20.45L49.18 20.45Q48.29 20.40 47.74 19.60Q47.18 18.79 47.18 17.54L47.18 17.54Q47.18 16.20 47.76 14.71Q48.34 13.22 49.24 11.95Q50.14 10.68 51.19 9.83Q52.25 8.98 53.23 8.93L53.23 8.93Q53.47 9.00 53.77 9.22Q54.07 9.43 54.35 9.72Q54.62 10.01 54.82 10.31Q55.01 10.61 55.03 10.82L55.03 10.82Q54.07 10.97 53.05 11.76Q52.03 12.55 51.20 13.67Q50.38 14.78 49.85 16.06Q49.32 17.33 49.32 18.43L49.32 18.43Q49.32 18.89 49.66 19.01L49.66 19.01Q50.35 18.86 51.26 17.82Q52.18 16.78 53.47 14.59L53.47 14.59Q53.71 14.16 54.01 13.63Q54.31 13.10 54.62 12.53Q54.94 11.95 55.24 11.36Q55.54 10.78 55.80 10.22ZM58.78 18.38L58.78 18.38Q58.78 17.33 59.28 15.42Q59.78 13.51 60.70 10.97L60.70 10.97Q62.18 6.91 63.49 4.21Q64.80 1.51 66.05 0L66.05 0Q66.34 0.05 66.76 0.24Q67.18 0.43 67.58 0.66Q67.99 0.89 68.32 1.13Q68.64 1.37 68.74 1.51L68.74 1.51Q66.86 3.72 65.45 6.26Q64.03 8.81 62.86 12.10L62.86 12.10Q61.85 14.93 61.32 17.20Q60.79 19.46 60.79 20.98L60.79 20.98Q60.79 21.38 60.79 21.48Q60.79 21.58 60.82 21.67L60.82 21.67Q60.48 21.62 60.24 21.50Q60 21.38 59.93 21.22L59.93 21.22Q59.88 21.10 59.66 20.87Q59.45 20.64 59.28 20.52L59.28 20.52Q59.06 20.38 58.92 19.76Q58.78 19.15 58.78 18.38ZM75.02 5.38L75.02 5.38Q74.06 5.38 73.55 4.84Q73.03 4.30 73.03 3.53L73.03 3.53Q73.03 3.34 73.09 3.07Q73.15 2.81 73.25 2.62L73.25 2.62Q73.56 2.76 74.17 2.82Q74.78 2.88 75.60 2.88L75.60 2.88Q76.82 2.88 78.37 2.77Q79.92 2.66 81.34 2.54Q82.75 2.42 83.83 2.32Q84.91 2.21 85.22 2.21L85.22 2.21Q86.11 2.21 86.51 2.87Q86.90 3.53 87.10 4.63L87.10 4.63Q86.47 4.58 85.86 4.55Q85.25 4.51 84.82 4.51L84.82 4.51Q84.05 4.51 83.27 4.56Q82.49 4.61 81.70 4.70L81.70 4.70Q81.36 5.40 80.95 6.35Q80.54 7.30 80.15 8.33Q79.75 9.36 79.39 10.38Q79.03 11.40 78.77 12.22L78.77 12.22Q78.24 13.80 77.84 15.14Q77.45 16.49 77.15 17.65Q76.85 18.82 76.63 19.87Q76.42 20.93 76.25 21.94L76.25 21.94Q74.64 21.70 73.56 19.92L73.56 19.92Q73.75 19.18 74.03 18.30Q74.30 17.42 74.68 16.31Q75.05 15.19 75.55 13.78Q76.06 12.36 76.70 10.56L76.70 10.56Q76.94 9.89 77.21 9.16Q77.47 8.42 77.72 7.70Q77.98 6.98 78.18 6.31Q78.38 5.64 78.53 5.09L78.53 5.09Q77.52 5.21 76.62 5.29Q75.72 5.38 75.02 5.38ZM90.17 9.98L90.17 9.98Q90.07 11.47 89.64 12.54Q89.21 13.61 88.40 14.41Q87.60 15.22 86.45 15.86Q85.30 16.51 83.76 17.11L83.76 17.11Q83.76 17.26 83.75 17.41Q83.74 17.57 83.74 17.74L83.74 17.74Q83.74 18.05 83.78 18.38Q83.83 18.72 83.95 19.01Q84.07 19.30 84.29 19.48Q84.50 19.66 84.84 19.66L84.84 19.66Q85.49 19.66 86.11 19.37Q86.74 19.08 87.30 18.66Q87.86 18.24 88.36 17.75Q88.85 17.26 89.23 16.85L89.23 16.85Q89.47 17.06 89.64 17.26L89.64 17.26Q88.56 18.70 87.28 19.64Q85.99 20.59 84.84 20.86L84.84 20.86Q83.18 20.66 82.26 19.64Q81.34 18.62 81.34 17.18L81.34 17.18Q81.34 16.20 81.61 15.18Q81.89 14.16 82.38 13.21Q82.87 12.26 83.53 11.42Q84.19 10.58 84.95 9.96Q85.70 9.34 86.51 8.98Q87.31 8.62 88.10 8.62L88.10 8.62Q89.21 8.76 90.17 9.98ZM88.51 10.78L88.51 10.78Q87.86 10.87 87.17 11.30Q86.47 11.74 85.86 12.46Q85.25 13.18 84.74 14.14Q84.24 15.10 83.95 16.20L83.95 16.20Q85.87 15.24 87.14 13.84Q88.42 12.43 88.51 10.78ZM91.42 15.70L91.42 15.70Q91.42 14.33 91.98 13.04Q92.54 11.76 93.47 10.76Q94.39 9.77 95.58 9.16Q96.77 8.54 98.04 8.54L98.04 8.54Q99.29 8.54 99.96 9.17Q100.63 9.79 100.63 10.94L100.63 10.94Q100.63 11.50 100.48 12.01Q100.32 12.53 100.07 12.94Q99.82 13.34 99.48 13.60Q99.14 13.85 98.81 13.85L98.81 13.85Q98.52 13.85 98.22 13.67Q97.92 13.49 97.73 13.20L97.73 13.20Q99.34 11.74 99.34 10.54L99.34 10.54Q99.34 9.84 98.78 9.84L98.78 9.84Q98.30 9.84 97.58 10.30Q96.86 10.75 96.19 11.50L96.19 11.50Q95.16 12.65 94.62 14.05Q94.08 15.46 94.08 16.99L94.08 16.99Q94.08 18.94 94.94 19.32L94.94 19.32Q95.30 19.27 95.78 19.10Q96.26 18.94 96.82 18.66Q97.37 18.38 97.96 18.02Q98.54 17.66 99.10 17.26L99.10 17.26Q99.19 17.33 99.26 17.47Q99.34 17.62 99.34 17.74L99.34 17.74Q98.93 18.24 98.40 18.72Q97.87 19.20 97.30 19.60Q96.72 19.99 96.18 20.27Q95.64 20.54 95.23 20.62L95.23 20.62Q94.44 20.54 93.74 20.12Q93.05 19.70 92.53 19.03Q92.02 18.36 91.72 17.50Q91.42 16.63 91.42 15.70ZM101.33 19.51L101.33 19.51Q101.33 18.67 101.50 17.53Q101.66 16.39 101.99 15.10Q102.31 13.80 102.76 12.38Q103.20 10.97 103.75 9.55L103.75 9.55Q104.23 8.28 104.87 6.98Q105.50 5.69 106.25 4.44Q106.99 3.19 107.80 2.06Q108.60 0.94 109.42 0L109.42 0Q109.80 0 110.24 0.10Q110.69 0.19 111.11 0.35Q111.53 0.50 111.88 0.72Q112.22 0.94 112.44 1.15L112.44 1.15Q110.64 3 109.20 4.88Q107.76 6.77 106.92 8.42L106.92 8.42Q106.46 9.34 106.09 10.13Q105.72 10.92 105.41 11.70Q105.10 12.48 104.84 13.26Q104.59 14.04 104.38 14.90L104.38 14.90Q108.98 9.02 111.22 9.02L111.22 9.02Q111.84 9.02 112.56 9.43Q113.28 9.84 113.83 10.54L113.83 10.54Q113.09 11.35 112.30 12.50Q111.50 13.66 110.84 14.82Q110.18 15.98 109.76 16.98Q109.34 17.98 109.34 18.46L109.34 18.46Q109.34 18.70 109.42 18.78Q109.49 18.86 109.73 18.86L109.73 18.86Q110.09 18.86 110.30 18.77Q110.52 18.67 110.57 18.67L110.57 18.67Q110.69 18.86 110.71 18.94Q110.74 19.01 110.74 19.06L110.74 19.06Q110.74 19.15 110.45 19.33Q110.16 19.51 109.76 19.69Q109.37 19.87 108.98 20.02Q108.60 20.16 108.41 20.16L108.41 20.16Q108.17 20.16 107.93 20.03Q107.69 19.90 107.51 19.68Q107.33 19.46 107.22 19.20Q107.11 18.94 107.11 18.65L107.11 18.65Q107.11 18.29 107.32 17.58Q107.52 16.87 107.88 15.92Q108.24 14.98 108.74 13.85Q109.25 12.72 109.82 11.54L109.82 11.54Q109.82 11.45 109.73 11.45L109.73 11.45Q109.66 11.45 109.36 11.64Q109.06 11.83 108.79 12.02L108.79 12.02Q107.93 12.67 107.05 13.62Q106.18 14.57 105.35 15.70Q104.52 16.82 103.79 18.08Q103.06 19.34 102.53 20.62L102.53 20.62Q102.46 20.78 102.31 20.93Q102.17 21.07 102.07 21.07L102.07 21.07Q102.00 21.07 101.87 20.90Q101.74 20.74 101.63 20.48Q101.52 20.23 101.42 19.97Q101.33 19.70 101.33 19.51Z" transform="translate(51, 4.54)"></path></svg>